<svg width="733" height="138" viewBox="0 0 733 138" fill="none" xmlns="http://www.w3.org/2000/svg">
<g filter="url(#filter0_d_541_1795)">
<path d="M694.158 68.1025C697.691 68.1025 700.953 68.7328 703.932 70.0039H703.931C706.896 71.2181 709.449 72.9368 711.577 75.1621H711.576C713.757 77.337 715.379 79.9093 716.441 82.8701L716.677 83.5254L716.04 83.8086L707.409 87.6445L706.694 87.9619L706.407 87.2344C705.325 84.4919 703.718 82.4207 701.598 80.9814L701.588 80.9746C699.464 79.4847 696.997 78.7324 694.158 78.7324C692.5 78.7324 691.068 79.024 689.848 79.585L689.826 79.5947C688.605 80.109 687.667 80.8449 686.984 81.7959C686.369 82.6736 686.046 83.7431 686.046 85.041C686.046 86.4483 686.497 87.6845 687.412 88.7783C688.319 89.8113 689.743 90.6692 691.761 91.3066H691.762L702.319 94.6064L702.327 94.6084C706.977 96.1168 710.527 98.2206 712.905 100.962C715.351 103.722 716.562 107.127 716.562 111.127C716.562 114.537 715.677 117.576 713.891 120.217C712.114 122.843 709.67 124.896 706.582 126.38C703.483 127.869 699.9 128.603 695.854 128.603C692.113 128.603 688.622 127.92 685.389 126.548L685.385 126.547C682.214 125.179 679.459 123.28 677.127 120.854L677.121 120.848L677.115 120.841C674.832 118.356 673.159 115.474 672.099 112.202L671.889 111.553L672.516 111.282L681.223 107.522L681.916 107.224L682.211 107.919C683.55 111.079 685.474 113.548 687.972 115.353C690.46 117.098 693.259 117.973 696.394 117.973C698.163 117.973 699.648 117.704 700.867 117.192C702.156 116.622 703.091 115.882 703.717 114.992L703.724 114.982L703.731 114.972C704.392 114.094 704.736 113.03 704.736 111.74C704.736 110.217 704.279 109.031 703.403 108.116L703.391 108.103L703.379 108.089C702.525 107.105 701.177 106.295 699.256 105.706L699.247 105.703L688.234 102.176C683.667 100.765 680.159 98.6272 677.78 95.7207C675.405 92.8181 674.22 89.3994 674.22 85.501C674.22 82.1004 675.049 79.0682 676.726 76.4297L676.731 76.4199H676.732C678.456 73.7924 680.824 71.7602 683.815 70.3242C686.86 68.8364 690.313 68.1026 694.158 68.1025Z" stroke="black" stroke-width="1.5" shape-rendering="crispEdges"/>
</g>
<g filter="url(#filter1_d_541_1795)">
<path d="M669.562 69.1025V79.7842H642.003V92.8975H668.027V103.578H642.003V116.921H669.562V127.603H630.062V69.1025H669.562Z" stroke="black" stroke-width="1.5" shape-rendering="crispEdges"/>
</g>
<g filter="url(#filter2_d_541_1795)">
<path d="M583.539 69.1025L583.708 69.6201L597.312 111.286L610.917 69.6201L611.086 69.1025H623.863L623.521 70.0957L603.953 127.096L603.779 127.603H590.922L590.748 127.097L571.104 70.0967L570.761 69.1025H583.539Z" stroke="black" stroke-width="1.5" shape-rendering="crispEdges"/>
</g>
<g filter="url(#filter3_d_541_1795)">
<path d="M553.605 69.1025L553.78 69.6074L573.521 126.607L573.866 127.603H560.903L560.732 127.089L556.833 115.361H535.789L531.814 127.093L531.642 127.603H518.759L519.104 126.607L538.845 69.6074L539.02 69.1025H553.605ZM539.29 104.68H553.335L546.312 83.752L539.29 104.68Z" stroke="black" stroke-width="1.5" shape-rendering="crispEdges"/>
</g>
<g filter="url(#filter4_d_541_1795)">
<path d="M455.663 69.1025L455.805 69.6709L465.771 109.647L476.186 69.6631L476.332 69.1025H488.371L488.517 69.665L498.859 109.621L508.82 69.6709L508.962 69.1025H521.793L521.536 70.0488L506.105 127.049L505.956 127.603H492.771L492.621 127.048L482.312 88.7598L472.004 127.048L471.854 127.603H458.669L458.52 127.049L443.089 70.0488L442.832 69.1025H455.663Z" stroke="black" stroke-width="1.5" shape-rendering="crispEdges"/>
</g>
<path d="M409.919 110.379C406.967 110.379 404.213 109.857 401.657 108.813C399.101 107.769 396.869 106.311 394.961 104.439C393.053 102.567 391.559 100.371 390.479 97.8505C389.435 95.2945 388.913 92.5405 388.913 89.5885C388.913 86.6005 389.435 83.8465 390.479 81.3265C391.523 78.8065 392.999 76.6105 394.907 74.7385C396.815 72.8665 399.047 71.4265 401.603 70.4185C404.159 69.3745 406.931 68.8525 409.919 68.8525C412.907 68.8525 415.679 69.3745 418.235 70.4185C420.791 71.4625 423.023 72.9205 424.931 74.7925C426.839 76.6285 428.315 78.8065 429.359 81.3265C430.439 83.8465 430.979 86.6005 430.979 89.5885C430.979 92.5405 430.439 95.2945 429.359 97.8505C428.279 100.371 426.785 102.567 424.877 104.439C422.969 106.311 420.737 107.769 418.181 108.813C415.661 109.857 412.907 110.379 409.919 110.379ZM409.919 103.683C411.899 103.683 413.717 103.341 415.373 102.657C417.029 101.937 418.469 100.947 419.693 99.6865C420.953 98.4265 421.907 96.9325 422.555 95.2045C423.239 93.4765 423.581 91.6045 423.581 89.5885C423.581 87.5725 423.239 85.7185 422.555 84.0265C421.907 82.2985 420.953 80.8045 419.693 79.5445C418.469 78.2485 417.029 77.2585 415.373 76.5745C413.717 75.8905 411.899 75.5485 409.919 75.5485C407.975 75.5485 406.175 75.8905 404.519 76.5745C402.863 77.2585 401.405 78.2485 400.145 79.5445C398.921 80.8045 397.967 82.2985 397.283 84.0265C396.599 85.7185 396.257 87.5725 396.257 89.5885C396.257 91.6045 396.599 93.4765 397.283 95.2045C397.967 96.9325 398.921 98.4265 400.145 99.6865C401.405 100.947 402.863 101.937 404.519 102.657C406.175 103.341 407.975 103.683 409.919 103.683Z" fill="#2C313F"/>
<path d="M369.596 109.73V75.98H359.174V69.5H387.254V75.98H376.994V109.73H369.596Z" fill="#2C313F"/>
<path d="M322.442 109.73V69.5H328.166L350.306 99.308L347.336 99.902V69.5H354.68V109.73H348.902L327.086 79.706L329.786 79.112V109.73H322.442Z" fill="#2C313F"/>
<path d="M307.36 109.73V69.5H314.704V109.73H307.36Z" fill="#2C313F"/>
<path d="M275.623 109.73V75.98H265.201V69.5H293.281V75.98H283.021V109.73H275.623Z" fill="#2C313F"/>
<path d="M253.413 109.73V69.5H260.757V109.73H253.413Z" fill="#2C313F"/>
<path d="M203.79 109.73V69.5H209.514L231.654 99.308L228.684 99.902V69.5H236.028V109.73H230.25L208.434 79.706L211.134 79.112V109.73H203.79Z" fill="#2C313F"/>
<path d="M168.089 109.73V69.5H183.047C185.783 69.5 188.195 70.004 190.283 71.012C192.407 71.984 194.063 73.424 195.251 75.332C196.439 77.204 197.033 79.49 197.033 82.19C197.033 84.962 196.367 87.32 195.035 89.264C193.739 91.208 191.975 92.648 189.743 93.584L198.977 109.73H190.661L180.779 92.072L185.531 94.88H175.433V109.73H168.089ZM175.433 88.4H183.155C184.487 88.4 185.639 88.148 186.611 87.644C187.583 87.104 188.339 86.366 188.879 85.43C189.419 84.494 189.689 83.414 189.689 82.19C189.689 80.93 189.419 79.85 188.879 78.95C188.339 78.014 187.583 77.294 186.611 76.79C185.639 76.25 184.487 75.98 183.155 75.98H175.433V88.4Z" fill="#2C313F"/>
<path d="M144.827 110.378C141.731 110.378 138.977 109.73 136.565 108.434C134.189 107.138 132.317 105.356 130.949 103.088C129.581 100.82 128.897 98.246 128.897 95.366V69.5H136.241V94.988C136.241 96.644 136.601 98.138 137.321 99.47C138.077 100.802 139.103 101.846 140.399 102.602C141.695 103.322 143.171 103.682 144.827 103.682C146.519 103.682 147.995 103.322 149.255 102.602C150.551 101.846 151.559 100.802 152.279 99.47C153.035 98.138 153.413 96.644 153.413 94.988V69.5H160.757V95.366C160.757 98.246 160.073 100.82 158.705 103.088C157.337 105.356 155.447 107.138 153.035 108.434C150.659 109.73 147.923 110.378 144.827 110.378Z" fill="#2C313F"/>
<path d="M107.19 109.73V75.98H96.7676V69.5H124.848V75.98H114.588V109.73H107.19Z" fill="#2C313F"/>
<path d="M58.3486 109.73V69.5H85.0786V75.98H65.6926V86.294H83.9986V92.774H65.6926V103.25H85.0786V109.73H58.3486Z" fill="#2C313F"/>
<path d="M10.8 109.73L0 69.5H7.884L16.362 103.79H14.31L23.166 69.5H30.78L39.582 103.79H37.53L46.008 69.5H53.892L43.092 109.73H34.668L25.758 76.358H28.134L19.224 109.73H10.8Z" fill="#2C313F"/>
<path d="M691.056 41.73V1.5H698.4V35.25H715.626V41.73H691.056Z" fill="#2C313F"/>
<path d="M649.318 41.73L663.196 1.5H672.7L686.578 41.73H678.586L675.724 33.09H660.172L657.256 41.73H649.318ZM662.278 26.61H673.618L666.922 6.576H668.974L662.278 26.61Z" fill="#2C313F"/>
<path d="M637.53 41.73V1.5H644.874V41.73H637.53Z" fill="#2C313F"/>
<path d="M615.391 41.73V7.98H604.969V1.5H633.049V7.98H622.789V41.73H615.391Z" fill="#2C313F"/>
<path d="M568.237 41.73V1.5H573.961L596.101 31.308L593.131 31.902V1.5H600.475V41.73H594.697L572.881 11.706L575.581 11.112V41.73H568.237Z" fill="#2C313F"/>
<path d="M536.122 41.73V1.5H562.852V7.98H543.466V18.294H561.772V24.774H543.466V35.25H562.852V41.73H536.122Z" fill="#2C313F"/>
<path d="M513.983 41.73V7.98H503.561V1.5H531.641V7.98H521.381V41.73H513.983Z" fill="#2C313F"/>
<path d="M480.9 42.3785C477.948 42.3785 475.194 41.8565 472.638 40.8125C470.082 39.7685 467.85 38.3105 465.942 36.4385C464.034 34.5665 462.54 32.3705 461.46 29.8505C460.416 27.2945 459.894 24.5405 459.894 21.5885C459.894 18.6005 460.416 15.8465 461.46 13.3265C462.504 10.8065 463.98 8.61054 465.888 6.73854C467.796 4.86654 470.028 3.42654 472.584 2.41854C475.14 1.37454 477.912 0.852539 480.9 0.852539C483.888 0.852539 486.66 1.37454 489.216 2.41854C491.772 3.46254 494.004 4.92054 495.912 6.79254C497.82 8.62854 499.296 10.8065 500.34 13.3265C501.42 15.8465 501.96 18.6005 501.96 21.5885C501.96 24.5405 501.42 27.2945 500.34 29.8505C499.26 32.3705 497.766 34.5665 495.858 36.4385C493.95 38.3105 491.718 39.7685 489.162 40.8125C486.642 41.8565 483.888 42.3785 480.9 42.3785ZM480.9 35.6825C482.88 35.6825 484.698 35.3405 486.354 34.6565C488.01 33.9365 489.45 32.9465 490.674 31.6865C491.934 30.4265 492.888 28.9325 493.536 27.2045C494.22 25.4765 494.562 23.6045 494.562 21.5885C494.562 19.5725 494.22 17.7185 493.536 16.0265C492.888 14.2985 491.934 12.8045 490.674 11.5445C489.45 10.2485 488.01 9.25854 486.354 8.57454C484.698 7.89054 482.88 7.54854 480.9 7.54854C478.956 7.54854 477.156 7.89054 475.5 8.57454C473.844 9.25854 472.386 10.2485 471.126 11.5445C469.902 12.8045 468.948 14.2985 468.264 16.0265C467.58 17.7185 467.238 19.5725 467.238 21.5885C467.238 23.6045 467.58 25.4765 468.264 27.2045C468.948 28.9325 469.902 30.4265 471.126 31.6865C472.386 32.9465 473.844 33.9365 475.5 34.6565C477.156 35.3405 478.956 35.6825 480.9 35.6825Z" fill="#2C313F"/>
<path d="M727.9 42.3789C727.269 42.3789 726.68 42.2658 726.133 42.0395C725.586 41.8132 725.108 41.4972 724.7 41.0915C724.292 40.6858 723.972 40.2099 723.741 39.6637C723.518 39.1097 723.406 38.5128 723.406 37.8731C723.406 37.2255 723.518 36.6286 723.741 36.0824C723.965 35.5363 724.28 35.0603 724.689 34.6546C725.097 34.2489 725.574 33.9368 726.121 33.7183C726.668 33.492 727.261 33.3789 727.9 33.3789C728.54 33.3789 729.133 33.492 729.68 33.7183C730.227 33.9446 730.704 34.2606 731.112 34.6663C731.52 35.0642 731.836 35.5363 732.06 36.0824C732.291 36.6286 732.406 37.2255 732.406 37.8731C732.406 38.5128 732.291 39.1097 732.06 39.6637C731.829 40.2099 731.509 40.6858 731.101 41.0915C730.693 41.4972 730.215 41.8132 729.668 42.0395C729.129 42.2658 728.54 42.3789 727.9 42.3789ZM727.9 40.9277C728.324 40.9277 728.713 40.8535 729.067 40.7053C729.422 40.5493 729.73 40.3347 729.992 40.0616C730.261 39.7885 730.465 39.4647 730.604 39.0902C730.75 38.7157 730.823 38.31 730.823 37.8731C730.823 37.4361 730.75 37.0343 730.604 36.6676C730.465 36.2931 730.261 35.9693 729.992 35.6962C729.73 35.4153 729.422 35.2008 729.067 35.0525C728.713 34.9043 728.324 34.8301 727.9 34.8301C727.485 34.8301 727.099 34.9043 726.745 35.0525C726.391 35.2008 726.079 35.4153 725.809 35.6962C725.547 35.9693 725.343 36.2931 725.197 36.6676C725.051 37.0343 724.977 37.4361 724.977 37.8731C724.977 38.31 725.051 38.7157 725.197 39.0902C725.343 39.4647 725.547 39.7885 725.809 40.0616C726.079 40.3347 726.391 40.5493 726.745 40.7053C727.099 40.8535 727.485 40.9277 727.9 40.9277Z" fill="#1242FB"/>
<path d="M727.9 127.73C727.269 127.73 726.68 127.617 726.133 127.391C725.586 127.165 725.108 126.849 724.7 126.443C724.292 126.037 723.972 125.561 723.741 125.015C723.518 124.461 723.406 123.864 723.406 123.225C723.406 122.577 723.518 121.98 723.741 121.434C723.965 120.888 724.28 120.412 724.689 120.006C725.097 119.6 725.574 119.288 726.121 119.07C726.668 118.844 727.261 118.73 727.9 118.73C728.54 118.73 729.133 118.844 729.68 119.07C730.227 119.296 730.704 119.612 731.112 120.018C731.52 120.416 731.836 120.888 732.06 121.434C732.291 121.98 732.406 122.577 732.406 123.225C732.406 123.864 732.291 124.461 732.06 125.015C731.829 125.561 731.509 126.037 731.101 126.443C730.693 126.849 730.215 127.165 729.668 127.391C729.129 127.617 728.54 127.73 727.9 127.73ZM727.9 126.279C728.324 126.279 728.713 126.205 729.067 126.057C729.422 125.901 729.73 125.686 729.992 125.413C730.261 125.14 730.465 124.816 730.604 124.442C730.75 124.067 730.823 123.662 730.823 123.225C730.823 122.788 730.75 122.386 730.604 122.019C730.465 121.645 730.261 121.321 729.992 121.048C729.73 120.767 729.422 120.552 729.067 120.404C728.713 120.256 728.324 120.182 727.9 120.182C727.485 120.182 727.099 120.256 726.745 120.404C726.391 120.552 726.079 120.767 725.809 121.048C725.547 121.321 725.343 121.645 725.197 122.019C725.051 122.386 724.977 122.788 724.977 123.225C724.977 123.662 725.051 124.067 725.197 124.442C725.343 124.816 725.547 125.14 725.809 125.413C726.079 125.686 726.391 125.901 726.745 126.057C727.099 126.205 727.485 126.279 727.9 126.279Z" fill="#1242FB"/>
<path d="M426.065 41.73V1.5H441.077C443.813 1.5 446.225 2.004 448.313 3.012C450.437 3.984 452.093 5.424 453.281 7.332C454.469 9.204 455.063 11.49 455.063 14.19C455.063 16.854 454.451 19.14 453.227 21.048C452.039 22.92 450.401 24.36 448.313 25.368C446.225 26.376 443.813 26.88 441.077 26.88H433.409V41.73H426.065ZM433.409 20.4H441.185C442.517 20.4 443.669 20.148 444.641 19.644C445.613 19.104 446.369 18.366 446.909 17.43C447.449 16.494 447.719 15.414 447.719 14.19C447.719 12.93 447.449 11.85 446.909 10.95C446.369 10.014 445.613 9.294 444.641 8.79C443.669 8.25 442.517 7.98 441.185 7.98H433.409V20.4Z" fill="#2C313F"/>
<path d="M395.87 42.3785C393.314 42.3785 390.938 41.9105 388.742 40.9745C386.582 40.0385 384.71 38.7425 383.126 37.0865C381.578 35.3945 380.444 33.4325 379.724 31.2005L385.826 28.5545C386.798 30.8585 388.202 32.6765 390.038 34.0085C391.874 35.3045 393.944 35.9525 396.248 35.9525C397.544 35.9525 398.66 35.7545 399.596 35.3585C400.568 34.9265 401.306 34.3505 401.81 33.6305C402.35 32.9105 402.62 32.0465 402.62 31.0385C402.62 29.8505 402.26 28.8785 401.54 28.1225C400.856 27.3305 399.812 26.7185 398.408 26.2865L390.686 23.8025C387.554 22.8305 385.196 21.3725 383.612 19.4285C382.028 17.4845 381.236 15.1985 381.236 12.5705C381.236 10.2665 381.794 8.23254 382.91 6.46854C384.062 4.70454 385.646 3.33654 387.662 2.36454C389.714 1.35654 392.054 0.852539 394.682 0.852539C397.094 0.852539 399.308 1.28454 401.324 2.14854C403.34 2.97654 405.068 4.14654 406.508 5.65854C407.984 7.13454 409.082 8.88054 409.802 10.8965L403.754 13.5965C402.962 11.5805 401.774 10.0325 400.19 8.95254C398.606 7.83654 396.77 7.27854 394.682 7.27854C393.458 7.27854 392.378 7.49454 391.442 7.92654C390.506 8.32254 389.768 8.89854 389.228 9.65454C388.724 10.3745 388.472 11.2385 388.472 12.2465C388.472 13.3625 388.832 14.3525 389.552 15.2165C390.272 16.0445 391.37 16.6925 392.846 17.1605L400.244 19.4825C403.448 20.5265 405.842 21.9665 407.426 23.8025C409.046 25.6385 409.856 27.9065 409.856 30.6065C409.856 32.9105 409.262 34.9445 408.074 36.7085C406.886 38.4725 405.248 39.8585 403.16 40.8665C401.072 41.8745 398.642 42.3785 395.87 42.3785Z" fill="#2C313F"/>
<path d="M340.295 41.73L354.173 1.5H363.677L377.555 41.73H369.563L366.701 33.09H351.149L348.233 41.73H340.295ZM353.255 26.61H364.595L357.899 6.576H359.951L353.255 26.61Z" fill="#2C313F"/>
<path d="M303.985 41.73V1.5H311.329V19.05H328.447V1.5H335.845V41.73H328.447V25.53H311.329V41.73H303.985Z" fill="#2C313F"/>
<g filter="url(#filter5_d_541_1795)">
<path d="M279.567 0.75L279.741 1.25586L293.619 41.4854L293.963 42.4805H284.377L284.206 41.9658L281.515 33.8398H267.043L264.299 41.9697L264.127 42.4805H254.599L254.941 41.4854L268.819 1.25586L268.994 0.75H279.567ZM269.651 25.8604H278.909L274.28 12.0107L269.651 25.8604Z" stroke="black" stroke-width="1.5" shape-rendering="crispEdges"/>
</g>
<g filter="url(#filter6_d_541_1795)">
<path d="M251.31 0.75V8.73047H231.923V17.5439H250.229V25.5244H231.923V34.5H251.31V42.4805H223.079V0.75H251.31Z" stroke="black" stroke-width="1.5" shape-rendering="crispEdges"/>
</g>
<g filter="url(#filter7_d_541_1795)">
<path d="M196.979 0.75C201.329 0.75001 205.149 1.6358 208.411 3.43555H208.41C211.693 5.19104 214.243 7.64459 216.042 10.791L216.369 11.3809C217.953 14.3612 218.734 17.7703 218.734 21.5879C218.734 25.6256 217.844 29.2475 216.046 32.4326L216.044 32.4365C214.244 35.5856 211.693 38.0586 208.407 39.8506L208.405 39.8516C205.144 41.6132 201.327 42.4805 196.979 42.4805H183.106V0.75H196.979ZM191.95 34.5H197.141C199.774 34.5 201.999 33.9636 203.846 32.9229C205.623 31.9065 207.023 30.5387 208.055 28.8115L208.256 28.4609C209.3 26.5387 209.837 24.2559 209.837 21.5879C209.837 18.8794 209.298 16.5978 208.256 14.7148C207.208 12.8224 205.744 11.3582 203.852 10.3105L203.846 10.3076C201.999 9.26683 199.774 8.73049 197.141 8.73047H191.95V34.5Z" stroke="black" stroke-width="1.5" shape-rendering="crispEdges"/>
</g>
<g filter="url(#filter8_d_541_1795)">
<path d="M176.868 0.75V42.4805H168.024V0.75H176.868Z" stroke="black" stroke-width="1.5" shape-rendering="crispEdges"/>
</g>
<path d="M123.476 41.73V1.5H138.434C141.17 1.5 143.582 2.004 145.67 3.012C147.794 3.984 149.45 5.424 150.638 7.332C151.826 9.204 152.42 11.49 152.42 14.19C152.42 16.962 151.754 19.32 150.422 21.264C149.126 23.208 147.362 24.648 145.13 25.584L154.364 41.73H146.048L136.166 24.072L140.918 26.88H130.82V41.73H123.476ZM130.82 20.4H138.542C139.874 20.4 141.026 20.148 141.998 19.644C142.97 19.104 143.726 18.366 144.266 17.43C144.806 16.494 145.076 15.414 145.076 14.19C145.076 12.93 144.806 11.85 144.266 10.95C143.726 10.014 142.97 9.294 141.998 8.79C141.026 8.25 139.874 7.98 138.542 7.98H130.82V20.4Z" fill="#2C313F"/>
<path d="M100.214 42.378C97.1182 42.378 94.3642 41.73 91.9522 40.434C89.5762 39.138 87.7042 37.356 86.3362 35.088C84.9682 32.82 84.2842 30.246 84.2842 27.366V1.5H91.6282V26.988C91.6282 28.644 91.9882 30.138 92.7082 31.47C93.4642 32.802 94.4902 33.846 95.7862 34.602C97.0822 35.322 98.5582 35.682 100.214 35.682C101.906 35.682 103.382 35.322 104.642 34.602C105.938 33.846 106.946 32.802 107.666 31.47C108.422 30.138 108.8 28.644 108.8 26.988V1.5H116.144V27.366C116.144 30.246 115.46 32.82 114.092 35.088C112.724 37.356 110.834 39.138 108.422 40.434C106.046 41.73 103.31 42.378 100.214 42.378Z" fill="#2C313F"/>
<path d="M57.1261 42.3785C54.1741 42.3785 51.4201 41.8565 48.8641 40.8125C46.3081 39.7685 44.0761 38.3105 42.1681 36.4385C40.2601 34.5665 38.7661 32.3705 37.6861 29.8505C36.6421 27.2945 36.1201 24.5405 36.1201 21.5885C36.1201 18.6005 36.6421 15.8465 37.6861 13.3265C38.7301 10.8065 40.2061 8.61054 42.1141 6.73854C44.0221 4.86654 46.2541 3.42654 48.8101 2.41854C51.3661 1.37454 54.1381 0.852539 57.1261 0.852539C60.1141 0.852539 62.8861 1.37454 65.4421 2.41854C67.9981 3.46254 70.2301 4.92054 72.1381 6.79254C74.0461 8.62854 75.5221 10.8065 76.5661 13.3265C77.6461 15.8465 78.1861 18.6005 78.1861 21.5885C78.1861 24.5405 77.6461 27.2945 76.5661 29.8505C75.4861 32.3705 73.9921 34.5665 72.0841 36.4385C70.1761 38.3105 67.9441 39.7685 65.3881 40.8125C62.8681 41.8565 60.1141 42.3785 57.1261 42.3785ZM57.1261 35.6825C59.1061 35.6825 60.9241 35.3405 62.5801 34.6565C64.2361 33.9365 65.6761 32.9465 66.9001 31.6865C68.1601 30.4265 69.1141 28.9325 69.7621 27.2045C70.4461 25.4765 70.7881 23.6045 70.7881 21.5885C70.7881 19.5725 70.4461 17.7185 69.7621 16.0265C69.1141 14.2985 68.1601 12.8045 66.9001 11.5445C65.6761 10.2485 64.2361 9.25854 62.5801 8.57454C60.9241 7.89054 59.1061 7.54854 57.1261 7.54854C55.1821 7.54854 53.3821 7.89054 51.7261 8.57454C50.0701 9.25854 48.6121 10.2485 47.3521 11.5445C46.1281 12.8045 45.1741 14.2985 44.4901 16.0265C43.8061 17.7185 43.4641 19.5725 43.4641 21.5885C43.4641 23.6045 43.8061 25.4765 44.4901 27.2045C45.1741 28.9325 46.1281 30.4265 47.3521 31.6865C48.6121 32.9465 50.0701 33.9365 51.7261 34.6565C53.3821 35.3405 55.1821 35.6825 57.1261 35.6825Z" fill="#2C313F"/>
<path d="M13.554 41.73V23.91L0 1.5H8.37L18.738 18.996H15.768L26.082 1.5H34.452L20.952 23.856V41.73H13.554Z" fill="#2C313F"/>
<defs>
<filter id="filter0_d_541_1795" x="666.965" y="67.3525" width="54.6533" height="70" filterUnits="userSpaceOnUse" color-interpolation-filters="sRGB">
<feFlood flood-opacity="0" result="BackgroundImageFix"/>
<feColorMatrix in="SourceAlpha" type="matrix" values="0 0 0 0 0 0 0 0 0 0 0 0 0 0 0 0 0 0 127 0" result="hardAlpha"/>
<feOffset dy="4"/>
<feGaussianBlur stdDeviation="2"/>
<feComposite in2="hardAlpha" operator="out"/>
<feColorMatrix type="matrix" values="0 0 0 0 0 0 0 0 0 0 0 0 0 0 0 0 0 0 0.25 0"/>
<feBlend mode="normal" in2="BackgroundImageFix" result="effect1_dropShadow_541_1795"/>
<feBlend mode="normal" in="SourceGraphic" in2="effect1_dropShadow_541_1795" result="shape"/>
</filter>
<filter id="filter1_d_541_1795" x="625.312" y="68.3525" width="49" height="68" filterUnits="userSpaceOnUse" color-interpolation-filters="sRGB">
<feFlood flood-opacity="0" result="BackgroundImageFix"/>
<feColorMatrix in="SourceAlpha" type="matrix" values="0 0 0 0 0 0 0 0 0 0 0 0 0 0 0 0 0 0 127 0" result="hardAlpha"/>
<feOffset dy="4"/>
<feGaussianBlur stdDeviation="2"/>
<feComposite in2="hardAlpha" operator="out"/>
<feColorMatrix type="matrix" values="0 0 0 0 0 0 0 0 0 0 0 0 0 0 0 0 0 0 0.25 0"/>
<feBlend mode="normal" in2="BackgroundImageFix" result="effect1_dropShadow_541_1795"/>
<feBlend mode="normal" in="SourceGraphic" in2="effect1_dropShadow_541_1795" result="shape"/>
</filter>
<filter id="filter2_d_541_1795" x="565.709" y="68.3525" width="63.2041" height="68" filterUnits="userSpaceOnUse" color-interpolation-filters="sRGB">
<feFlood flood-opacity="0" result="BackgroundImageFix"/>
<feColorMatrix in="SourceAlpha" type="matrix" values="0 0 0 0 0 0 0 0 0 0 0 0 0 0 0 0 0 0 127 0" result="hardAlpha"/>
<feOffset dy="4"/>
<feGaussianBlur stdDeviation="2"/>
<feComposite in2="hardAlpha" operator="out"/>
<feColorMatrix type="matrix" values="0 0 0 0 0 0 0 0 0 0 0 0 0 0 0 0 0 0 0.25 0"/>
<feBlend mode="normal" in2="BackgroundImageFix" result="effect1_dropShadow_541_1795"/>
<feBlend mode="normal" in="SourceGraphic" in2="effect1_dropShadow_541_1795" result="shape"/>
</filter>
<filter id="filter3_d_541_1795" x="513.706" y="68.3525" width="65.2129" height="68" filterUnits="userSpaceOnUse" color-interpolation-filters="sRGB">
<feFlood flood-opacity="0" result="BackgroundImageFix"/>
<feColorMatrix in="SourceAlpha" type="matrix" values="0 0 0 0 0 0 0 0 0 0 0 0 0 0 0 0 0 0 127 0" result="hardAlpha"/>
<feOffset dy="4"/>
<feGaussianBlur stdDeviation="2"/>
<feComposite in2="hardAlpha" operator="out"/>
<feColorMatrix type="matrix" values="0 0 0 0 0 0 0 0 0 0 0 0 0 0 0 0 0 0 0.25 0"/>
<feBlend mode="normal" in2="BackgroundImageFix" result="effect1_dropShadow_541_1795"/>
<feBlend mode="normal" in="SourceGraphic" in2="effect1_dropShadow_541_1795" result="shape"/>
</filter>
<filter id="filter4_d_541_1795" x="437.853" y="68.3525" width="88.9199" height="68" filterUnits="userSpaceOnUse" color-interpolation-filters="sRGB">
<feFlood flood-opacity="0" result="BackgroundImageFix"/>
<feColorMatrix in="SourceAlpha" type="matrix" values="0 0 0 0 0 0 0 0 0 0 0 0 0 0 0 0 0 0 127 0" result="hardAlpha"/>
<feOffset dy="4"/>
<feGaussianBlur stdDeviation="2"/>
<feComposite in2="hardAlpha" operator="out"/>
<feColorMatrix type="matrix" values="0 0 0 0 0 0 0 0 0 0 0 0 0 0 0 0 0 0 0.25 0"/>
<feBlend mode="normal" in2="BackgroundImageFix" result="effect1_dropShadow_541_1795"/>
<feBlend mode="normal" in="SourceGraphic" in2="effect1_dropShadow_541_1795" result="shape"/>
</filter>
<filter id="filter5_d_541_1795" x="249.546" y="0" width="49.4688" height="51.2305" filterUnits="userSpaceOnUse" color-interpolation-filters="sRGB">
<feFlood flood-opacity="0" result="BackgroundImageFix"/>
<feColorMatrix in="SourceAlpha" type="matrix" values="0 0 0 0 0 0 0 0 0 0 0 0 0 0 0 0 0 0 127 0" result="hardAlpha"/>
<feOffset dy="4"/>
<feGaussianBlur stdDeviation="2"/>
<feComposite in2="hardAlpha" operator="out"/>
<feColorMatrix type="matrix" values="0 0 0 0 0 0 0 0 0 0 0 0 0 0 0 0 0 0 0.25 0"/>
<feBlend mode="normal" in2="BackgroundImageFix" result="effect1_dropShadow_541_1795"/>
<feBlend mode="normal" in="SourceGraphic" in2="effect1_dropShadow_541_1795" result="shape"/>
</filter>
<filter id="filter6_d_541_1795" x="218.329" y="0" width="37.7305" height="51.2305" filterUnits="userSpaceOnUse" color-interpolation-filters="sRGB">
<feFlood flood-opacity="0" result="BackgroundImageFix"/>
<feColorMatrix in="SourceAlpha" type="matrix" values="0 0 0 0 0 0 0 0 0 0 0 0 0 0 0 0 0 0 127 0" result="hardAlpha"/>
<feOffset dy="4"/>
<feGaussianBlur stdDeviation="2"/>
<feComposite in2="hardAlpha" operator="out"/>
<feColorMatrix type="matrix" values="0 0 0 0 0 0 0 0 0 0 0 0 0 0 0 0 0 0 0.25 0"/>
<feBlend mode="normal" in2="BackgroundImageFix" result="effect1_dropShadow_541_1795"/>
<feBlend mode="normal" in="SourceGraphic" in2="effect1_dropShadow_541_1795" result="shape"/>
</filter>
<filter id="filter7_d_541_1795" x="178.356" y="0" width="45.1279" height="51.2305" filterUnits="userSpaceOnUse" color-interpolation-filters="sRGB">
<feFlood flood-opacity="0" result="BackgroundImageFix"/>
<feColorMatrix in="SourceAlpha" type="matrix" values="0 0 0 0 0 0 0 0 0 0 0 0 0 0 0 0 0 0 127 0" result="hardAlpha"/>
<feOffset dy="4"/>
<feGaussianBlur stdDeviation="2"/>
<feComposite in2="hardAlpha" operator="out"/>
<feColorMatrix type="matrix" values="0 0 0 0 0 0 0 0 0 0 0 0 0 0 0 0 0 0 0.25 0"/>
<feBlend mode="normal" in2="BackgroundImageFix" result="effect1_dropShadow_541_1795"/>
<feBlend mode="normal" in="SourceGraphic" in2="effect1_dropShadow_541_1795" result="shape"/>
</filter>
<filter id="filter8_d_541_1795" x="163.274" y="0" width="18.3438" height="51.2305" filterUnits="userSpaceOnUse" color-interpolation-filters="sRGB">
<feFlood flood-opacity="0" result="BackgroundImageFix"/>
<feColorMatrix in="SourceAlpha" type="matrix" values="0 0 0 0 0 0 0 0 0 0 0 0 0 0 0 0 0 0 127 0" result="hardAlpha"/>
<feOffset dy="4"/>
<feGaussianBlur stdDeviation="2"/>
<feComposite in2="hardAlpha" operator="out"/>
<feColorMatrix type="matrix" values="0 0 0 0 0 0 0 0 0 0 0 0 0 0 0 0 0 0 0.25 0"/>
<feBlend mode="normal" in2="BackgroundImageFix" result="effect1_dropShadow_541_1795"/>
<feBlend mode="normal" in="SourceGraphic" in2="effect1_dropShadow_541_1795" result="shape"/>
</filter>
</defs>
</svg>
