<svg width="240" height="240" viewBox="0 0 240 240" fill="none" xmlns="http://www.w3.org/2000/svg">
<path d="M192.767 118.694L190.459 120L192.767 121.306L233.066 144.102C233.068 144.103 233.069 144.104 233.07 144.104C238.255 147.069 240.034 153.469 237.055 158.473L237.052 158.478L212.553 199.993C209.536 205.059 202.963 206.847 197.802 203.898L197.797 203.894L157.491 181.094L155.253 179.828V182.4V228C155.253 233.742 150.441 238.5 144.502 238.5H95.4983C89.5593 238.5 84.7474 233.742 84.7474 228V182.4V179.828L82.5088 181.094L42.2182 203.886C42.2158 203.888 42.2133 203.889 42.2109 203.89C37.0197 206.746 30.4516 205.035 27.4483 199.994C27.4479 199.994 27.4475 199.993 27.4471 199.993L2.95736 158.493C2.95586 158.49 2.95437 158.488 2.95287 158.485C0.0674946 153.451 1.77153 147.055 6.92967 144.105C6.93097 144.104 6.93228 144.103 6.93358 144.102L47.2333 121.306L49.5413 120L47.2333 118.694L6.93358 95.8976C6.93269 95.8971 6.9318 95.8966 6.93091 95.8961C1.7454 92.9313 -0.0343865 86.531 2.94537 81.5275L2.94842 81.5223L27.4471 40.0075C27.4476 40.0066 27.4482 40.0057 27.4487 40.0048C30.4522 34.9647 37.0199 33.2546 42.2109 36.1098C42.2133 36.1111 42.2158 36.1125 42.2182 36.1138L82.5088 58.9056L84.7474 60.1719V57.6V12C84.7474 6.25753 89.5593 1.5 95.4983 1.5H144.502C150.441 1.5 155.253 6.25753 155.253 12V57.6V60.1719L157.491 58.9056L197.782 36.1138C197.784 36.1126 197.786 36.1113 197.789 36.1101C202.98 33.2541 209.549 34.965 212.552 40.0068C212.553 40.007 212.553 40.0073 212.553 40.0075L237.043 81.507C237.044 81.5095 237.045 81.5119 237.047 81.5144C239.933 86.5493 238.228 92.9469 233.068 95.8965C233.068 95.8969 233.067 95.8972 233.066 95.8976L192.767 118.694Z" stroke="white" stroke-width="3"/>
</svg>
