<svg width="198" height="167" viewBox="0 0 198 167" fill="none" xmlns="http://www.w3.org/2000/svg">
<path d="M10.4855 110.438C23.8553 126.698 37.225 126.698 50.5948 110.438C63.9645 94.1774 77.3342 94.1774 90.704 110.438C104.074 126.698 117.443 126.698 130.813 110.438C144.183 94.1774 157.553 94.1774 170.922 110.438C184.292 126.698 191.158 122.36 191.158 122.36" stroke="black" stroke-width="12" stroke-linecap="round"/>
<path d="M10.4855 73.1953C23.8553 89.4558 37.225 89.4558 50.5948 73.1953C63.9645 56.9348 77.3342 56.9348 90.704 73.1953C104.074 89.4558 117.443 89.4558 130.813 73.1953C144.183 56.9348 157.553 56.9348 170.922 73.1953C184.292 89.4558 191.158 85.1173 191.158 85.1173" stroke="black" stroke-width="12" stroke-linecap="round"/>
<path d="M10.4855 148.191C23.8553 164.452 37.225 164.452 50.5947 148.191C63.9645 131.931 77.3342 131.931 90.7039 148.191C104.074 164.452 117.443 164.452 130.813 148.191C144.183 131.931 157.553 131.931 170.922 148.191C184.292 164.452 191.158 160.113 191.158 160.113" stroke="black" stroke-width="12" stroke-linecap="round"/>
<path d="M30.7492 6.13074L30.5329 53.0822" stroke="black" stroke-width="8" stroke-linecap="round"/>
<path d="M10.261 41.2485L51.0303 17.96" stroke="black" stroke-width="8" stroke-linecap="round"/>
<path d="M9.88316 17.7697L50.4362 41.4326" stroke="black" stroke-width="8" stroke-linecap="round"/>
</svg>
