<svg width="473" height="381" viewBox="0 0 473 381" fill="none" xmlns="http://www.w3.org/2000/svg">
<path d="M25.7188 247.739C57.8993 286.878 90.0798 286.878 122.26 247.739C154.441 208.601 186.621 208.601 218.802 247.739C250.982 286.878 283.163 286.878 315.344 247.739C347.524 208.601 379.705 208.601 411.885 247.739C444.066 286.878 460.591 276.435 460.591 276.435" stroke="#FFFDFA" stroke-width="24.6154" stroke-linecap="round"/>
<path d="M25.7188 158.091C57.8993 197.229 90.0798 197.229 122.26 158.091C154.441 118.952 186.621 118.952 218.802 158.091C250.982 197.229 283.163 197.229 315.344 158.091C347.524 118.952 379.705 118.952 411.885 158.091C444.066 197.229 460.591 186.786 460.591 186.786" stroke="#FFFDFA" stroke-width="24.6154" stroke-linecap="round"/>
<path d="M25.7188 338.61C57.8993 377.749 90.0798 377.749 122.26 338.61C154.441 299.472 186.621 299.472 218.802 338.61C250.982 377.749 283.163 377.749 315.344 338.61C347.524 299.472 379.705 299.472 411.885 338.61C444.066 377.749 460.591 367.306 460.591 367.306" stroke="#FFFDFA" stroke-width="24.6154" stroke-linecap="round"/>
<path d="M122.846 43.6309L24.7154 99.6855" stroke="white" stroke-width="24.6154" stroke-linecap="round"/>
<path d="M25.0059 43.187L122.616 100.143" stroke="white" stroke-width="24.6154" stroke-linecap="round"/>
<path d="M73.4629 14.1323L72.9424 127.143" stroke="white" stroke-width="24.6154" stroke-linecap="round"/>
</svg>
