<svg width="57" height="33" viewBox="0 0 57 33" fill="none" xmlns="http://www.w3.org/2000/svg">
<path d="M2 16.5027C5.922 21.2727 9.844 21.2727 13.766 16.5027C17.688 11.7327 21.61 11.7327 25.532 16.5027C29.454 21.2727 33.376 21.2727 37.298 16.5027C41.22 11.7327 45.142 11.7327 49.064 16.5027C52.986 21.2727 55 20 55 20" stroke="#FFFDFA" stroke-width="3" stroke-linecap="round"/>
<path d="M2 5.57762C5.922 10.3476 9.844 10.3476 13.766 5.57762C17.688 0.807612 21.61 0.807612 25.532 5.57762C29.454 10.3476 33.376 10.3476 37.298 5.57762C41.22 0.807612 45.142 0.807612 49.064 5.57762C52.986 10.3476 55 9.07492 55 9.07492" stroke="#FFFDFA" stroke-width="3" stroke-linecap="round"/>
<path d="M2 27.5776C5.922 32.3476 9.844 32.3476 13.766 27.5776C17.688 22.8076 21.61 22.8076 25.532 27.5776C29.454 32.3476 33.376 32.3476 37.298 27.5776C41.22 22.8076 45.142 22.8076 49.064 27.5776C52.986 32.3476 55 31.0749 55 31.0749" stroke="#FFFDFA" stroke-width="3" stroke-linecap="round"/>
</svg>
