<svg width="58" height="46" viewBox="0 0 58 46" fill="none" xmlns="http://www.w3.org/2000/svg">
<path d="M3 29.5029C6.922 34.2729 10.844 34.2729 14.766 29.5029C18.688 24.7329 22.61 24.7329 26.532 29.5029C30.454 34.2729 34.376 34.2729 38.298 29.5029C42.22 24.7329 46.142 24.7329 50.064 29.5029C53.986 34.2729 56 33.0002 56 33.0002" stroke="#FFFDFA" stroke-width="3" stroke-linecap="round"/>
<path d="M3 18.5776C6.922 23.3476 10.844 23.3476 14.766 18.5776C18.688 13.8076 22.61 13.8076 26.532 18.5776C30.454 23.3476 34.376 23.3476 38.298 18.5776C42.22 13.8076 46.142 13.8076 50.064 18.5776C53.986 23.3476 56 22.0749 56 22.0749" stroke="#FFFDFA" stroke-width="3" stroke-linecap="round"/>
<path d="M3 40.5776C6.922 45.3476 10.844 45.3476 14.766 40.5776C18.688 35.8076 22.61 35.8076 26.532 40.5776C30.454 45.3476 34.376 45.3476 38.298 40.5776C42.22 35.8076 46.142 35.8076 50.064 40.5776C53.986 45.3476 56 44.0749 56 44.0749" stroke="#FFFDFA" stroke-width="3" stroke-linecap="round"/>
<path d="M12.3555 2.10352L5.41395 13.9997" stroke="white" stroke-width="3" stroke-linecap="round"/>
<path d="M2 8.02002L15.7732 8.08345" stroke="white" stroke-width="3" stroke-linecap="round"/>
<path d="M5.34766 2L12.1793 13.9596" stroke="white" stroke-width="3" stroke-linecap="round"/>
</svg>
