<svg width="50" height="50" viewBox="0 0 50 50" fill="none" xmlns="http://www.w3.org/2000/svg">
<rect width="50" height="50" rx="25" transform="matrix(1 1.74846e-07 1.74846e-07 -1 0 50)" fill="#4D79ED"/>
<path d="M14.3844 28.1616C14.1006 27.1025 14.7291 26.0139 15.7882 25.7301L18.9843 24.8737C21.1024 24.3062 22.3595 22.1289 21.7919 20.0108L20.9355 16.8147C20.6517 15.7556 21.2802 14.667 22.3393 14.3832C23.3984 14.0994 24.487 14.7279 24.7708 15.787L25.199 17.3851L25.6272 18.9831C26.1947 21.1013 28.372 22.3583 30.4901 21.7907L33.6862 20.9343C34.7453 20.6506 35.8339 21.2791 36.1177 22.3382C36.4015 23.3972 35.773 24.4859 34.7139 24.7696L31.5178 25.626C29.3996 26.1936 28.1426 28.3708 28.7102 30.489L29.5666 33.6851C29.8503 34.7441 29.2218 35.8328 28.1627 36.1165C27.1037 36.4003 26.0151 35.7718 25.7313 34.7127L24.8749 31.5166C24.3073 29.3985 22.1301 28.1415 20.0119 28.709L16.8158 29.5654C15.7568 29.8492 14.6682 29.2207 14.3844 28.1616Z" fill="white"/>
</svg>
