<svg width="50" height="50" viewBox="0 0 50 50" fill="none" xmlns="http://www.w3.org/2000/svg">
<rect width="50" height="50" rx="25" transform="matrix(1 1.74846e-07 1.74846e-07 -1 0 50)" fill="#5AC4FF"/>
<path d="M16.1637 18.6167C16.8101 17.7311 18.0521 17.5373 18.9377 18.1838L21.6102 20.1347C23.3813 21.4277 25.8653 21.04 27.1583 19.2689L29.1092 16.5964C29.7557 15.7108 30.9977 15.517 31.8833 16.1635V16.1635C32.7689 16.81 32.9627 18.052 32.3162 18.9375L31.3407 20.2738L30.3653 21.61C29.0723 23.3812 29.4599 25.8651 31.2311 27.1581L33.9036 29.1091C34.7891 29.7556 34.983 30.9975 34.3365 31.8831V31.8831C33.69 32.7687 32.448 32.9625 31.5624 32.316L28.89 30.3651C27.1188 29.0721 24.6348 29.4598 23.3419 31.2309L21.3909 33.9034C20.7444 34.789 19.5024 34.9828 18.6169 34.3363V34.3363C17.7313 33.6898 17.5375 32.4478 18.1839 31.5623L20.1349 28.8898C21.4279 27.1186 21.0402 24.6347 19.2691 23.3417L16.5966 21.3907C15.711 20.7443 15.5172 19.5023 16.1637 18.6167V18.6167Z" fill="white"/>
</svg>
